<svg width="268" height="184" viewBox="0 0 268 184" fill="none" xmlns="http://www.w3.org/2000/svg">
<g opacity="0.1" filter="url(#filter0_d_115_10)">
<path d="M71.6 175.36C50.64 175.36 34.16 167.44 22.16 151.6C10.32 135.6 4.4 114.4 4.4 88C4.4 61.6 10.32 40.48 22.16 24.64C34.16 8.63999 50.64 0.639989 71.6 0.639989C92.72 0.639989 109.2 8.63999 121.04 24.64C132.88 40.48 138.8 61.6 138.8 88C138.8 114.4 132.88 135.6 121.04 151.6C109.2 167.44 92.72 175.36 71.6 175.36ZM46.16 129.04C51.92 138.32 60.4 142.96 71.6 142.96C82.8 142.96 91.28 138.24 97.04 128.8C102.96 119.36 105.92 105.76 105.92 88C105.92 70.08 102.96 56.4 97.04 46.96C91.28 37.52 82.8 32.8 71.6 32.8C60.4 32.8 51.92 37.52 46.16 46.96C40.4 56.4 37.52 70.08 37.52 88C37.52 105.92 40.4 119.6 46.16 129.04ZM225.095 72.16C236.455 75.52 245.655 81.44 252.695 89.92C259.895 98.24 263.495 108.32 263.495 120.16C263.495 137.44 257.655 150.96 245.975 160.72C234.455 170.48 220.295 175.36 203.495 175.36C190.375 175.36 178.615 172.4 168.215 166.48C157.975 160.4 150.535 151.52 145.895 139.84L174.215 123.52C178.375 136.48 188.135 142.96 203.495 142.96C211.975 142.96 218.535 140.96 223.175 136.96C227.975 132.8 230.375 127.2 230.375 120.16C230.375 113.28 227.975 107.76 223.175 103.6C218.535 99.44 211.975 97.36 203.495 97.36H196.295L183.575 78.16L216.695 34.96H150.935V3.99999H256.535V31.36L225.095 72.16Z" fill="white"/>
</g>
<defs>
<filter id="filter0_d_115_10" x="0.399994" y="0.639893" width="267.095" height="182.72" filterUnits="userSpaceOnUse" color-interpolation-filters="sRGB">
<feFlood flood-opacity="0" result="BackgroundImageFix"/>
<feColorMatrix in="SourceAlpha" type="matrix" values="0 0 0 0 0 0 0 0 0 0 0 0 0 0 0 0 0 0 127 0" result="hardAlpha"/>
<feOffset dy="4"/>
<feGaussianBlur stdDeviation="2"/>
<feComposite in2="hardAlpha" operator="out"/>
<feColorMatrix type="matrix" values="0 0 0 0 0 0 0 0 0 0 0 0 0 0 0 0 0 0 0.25 0"/>
<feBlend mode="normal" in2="BackgroundImageFix" result="effect1_dropShadow_115_10"/>
<feBlend mode="normal" in="SourceGraphic" in2="effect1_dropShadow_115_10" result="shape"/>
</filter>
</defs>
</svg>
